<svg id="Layer_6" data-name="Layer 6" xmlns="http://www.w3.org/2000/svg" width="336" height="280" viewBox="0 0 336 280"><defs><style>.cls-1{fill:#fff;}</style></defs><title>copy2b</title><path class="cls-1" d="M22.8,136.4h7.7c2.9,0,5.7.4,7.7,1.6a6.3,6.3,0,0,1,2.9,5.8,6.8,6.8,0,0,1-5,6.8L43,161H36.8l-6.2-9.7H28.2V161H22.8Zm8.1,10.8a7.9,7.9,0,0,0,3.4-.5,2.6,2.6,0,0,0,1.4-2.5,2.3,2.3,0,0,0-1.4-2.4,8.2,8.2,0,0,0-4-.7H28.2v6.1Z"/><path class="cls-1" d="M48.2,154c.6,2.3,2.5,3.4,4.9,3.4a10.5,10.5,0,0,0,5.7-1.9v4.3a12.2,12.2,0,0,1-6.4,1.6c-5.5,0-9.5-3.5-9.5-8.7a8.7,8.7,0,0,1,8.8-8.8c4.1,0,8,2.7,8,8.3a9.7,9.7,0,0,1-.1,1.8Zm6.7-3.3a3.3,3.3,0,0,0-3.3-2.9,3.6,3.6,0,0,0-3.4,2.9Z"/><path class="cls-1" d="M72.5,160a8.2,8.2,0,0,1-4.7,1.4,6.8,6.8,0,0,1-3.8-1.1,4.5,4.5,0,0,1-2-3.9,4.7,4.7,0,0,1,2-4.1,8.3,8.3,0,0,1,4.7-1.2,13.6,13.6,0,0,1,2.9.3v-.6A3,3,0,0,0,71,149a4.3,4.3,0,0,0-2.6-.7,10.4,10.4,0,0,0-4.9,1.3v-4.4a12.8,12.8,0,0,1,5.8-1.3,8.7,8.7,0,0,1,5.6,1.6,5.4,5.4,0,0,1,1.9,4.6v5.7c0,.8.3,1.3,1,1.3a1.1,1.1,0,0,0,.8-.2v3.9a5.4,5.4,0,0,1-2.4.5,5,5,0,0,1-3.6-1.3Zm-.9-5.6-1.8-.2c-1.4,0-2.7.4-2.7,1.7s1,1.7,2.2,1.7a4.5,4.5,0,0,0,2.3-.7Z"/><path class="cls-1" d="M81.3,135h5.2v26H81.3Z"/><path class="cls-1" d="M98.9,136.4h15.2v4.7h-9.8v4.8h8.5v4.5h-8.5v5.9h10.2V161H98.9Z"/><path class="cls-1" d="M117.4,155.5a15.3,15.3,0,0,0,6.6,1.9c1.5,0,2.3-.4,2.3-1.3s-1.9-1.2-4.4-1.8-5-2.1-5-4.9,3.2-5.5,7.3-5.5a15.9,15.9,0,0,1,6.4,1.3v4.5a13.5,13.5,0,0,0-6.3-1.8c-1.4,0-2.2.4-2.2,1.2s1.8,1.1,4.3,1.7,5.1,2,5.1,4.9-3.2,5.7-7.5,5.7a15.7,15.7,0,0,1-6.6-1.4Z"/><path class="cls-1" d="M145.6,160.5a8.2,8.2,0,0,1-3.8.9,6.2,6.2,0,0,1-4.4-1.7c-.9-.9-1.4-2.3-1.4-5v-6.1h-2.8v-4.3H136v-4.4l5.1-.9v5.3h4.5v4.3h-4.5v5.6c0,1.6.4,2.8,2,2.8a5.5,5.5,0,0,0,2.5-.7Z"/><path class="cls-1" d="M158.1,160a8.2,8.2,0,0,1-4.7,1.4,7.4,7.4,0,0,1-3.9-1.1,4.7,4.7,0,0,1-1.9-3.9,4.7,4.7,0,0,1,2-4.1,8.3,8.3,0,0,1,4.7-1.2,13.6,13.6,0,0,1,2.9.3v-.6a2.5,2.5,0,0,0-.7-1.8,3.7,3.7,0,0,0-2.5-.7,10.4,10.4,0,0,0-4.9,1.3v-4.4a12.8,12.8,0,0,1,5.8-1.3,8.9,8.9,0,0,1,5.6,1.6,5.7,5.7,0,0,1,1.9,4.6v5.7c0,.8.3,1.3,1,1.3a1.3,1.3,0,0,0,.8-.2v3.9a5.8,5.8,0,0,1-2.5.5,5.3,5.3,0,0,1-3.6-1.3Zm-.9-5.6-1.9-.2c-1.3,0-2.6.4-2.6,1.7s.9,1.7,2.1,1.7a4.5,4.5,0,0,0,2.4-.7Z"/><path class="cls-1" d="M177.8,160.5a8.2,8.2,0,0,1-3.8.9,6.2,6.2,0,0,1-4.4-1.7c-.9-.9-1.4-2.3-1.4-5v-6.1h-2.8v-4.3h2.8v-4.4l5.1-.9v5.3h4.5v4.3h-4.5v5.6c0,1.6.4,2.8,2,2.8a5.5,5.5,0,0,0,2.5-.7Z"/><path class="cls-1" d="M184.8,154c.6,2.3,2.5,3.4,4.9,3.4a10.5,10.5,0,0,0,5.7-1.9v4.3a12.4,12.4,0,0,1-6.4,1.6c-5.5,0-9.5-3.5-9.5-8.7a8.7,8.7,0,0,1,8.8-8.8c4.1,0,8,2.7,8,8.3,0,.6-.1,1.4-.1,1.8Zm6.7-3.3a3.3,3.3,0,0,0-3.3-2.9,3.4,3.4,0,0,0-3.4,2.9Z"/><path class="cls-1" d="M216.6,150.3,213,145h-.1c.1,1.8.1,4.1.1,6.1V161h-5.2V136.4H213l7.3,10.4,7.3-10.4h5.2V161h-5.4V145h0l-3.6,5.3-3.6,5Z"/><path class="cls-1" d="M236.9,154.1a15.6,15.6,0,0,0,7.9,2.5c2,0,3.4-.7,3.4-2.6s-2.3-2.5-5.4-3.5-6.5-2.8-6.5-7,3.5-7.5,8.6-7.5a16.7,16.7,0,0,1,7.6,1.8v5.3a16.5,16.5,0,0,0-7.6-2.4c-1.8,0-3.2.7-3.2,2.3s2.3,2.4,5.3,3.4,6.7,2.9,6.7,7.3-3.7,7.7-9,7.7a18.5,18.5,0,0,1-7.8-1.8Z"/><path class="cls-1" d="M270.5,160.1a11.4,11.4,0,0,1-5.5,1.3c-5.3,0-9.3-3.7-9.3-8.7s4.4-8.8,9.6-8.8a11.2,11.2,0,0,1,5,1.1v4.8a9.6,9.6,0,0,0-4.8-1.5,4.3,4.3,0,0,0-4.6,4.3c0,2.6,1.9,4.4,4.7,4.4a8.3,8.3,0,0,0,4.9-1.7Z"/></svg>