<svg id="Layer_6" data-name="Layer 6" xmlns="http://www.w3.org/2000/svg" width="336" height="280" viewBox="0 0 336 280"><defs><style>.cls-1{fill:#fff;}</style></defs><title>copy2c</title><path class="cls-1" d="M22.8,121.4H30c3.3,0,5.8.5,7.4,1.4a5.1,5.1,0,0,1,2.8,4.7,4.9,4.9,0,0,1-3.7,5h0c3.1.9,4.7,3,4.7,6a6.5,6.5,0,0,1-4.7,6.4,16.9,16.9,0,0,1-6.4,1H22.8ZM31,131.6c2.3,0,3.8-.8,3.8-2.8a2.3,2.3,0,0,0-1.1-2.2,8.7,8.7,0,0,0-3.8-.6H28.2v5.6Zm-.8,9.8a12.8,12.8,0,0,0,4.1-.5,2.5,2.5,0,0,0,1.5-2.5c0-2.1-1.5-3.1-4.4-3.1H28.2v6.1Z"/><path class="cls-1" d="M55.5,144.4a7.8,7.8,0,0,1-5.1,2,5.9,5.9,0,0,1-4.4-1.7c-1.1-1.1-1.6-2.6-1.6-5.1V129.3h5.2v9.5a3.7,3.7,0,0,0,.6,2.4,2.6,2.6,0,0,0,1.9.8,6.2,6.2,0,0,0,3.4-1.5V129.3h5.1V146H55.5v-1.6Z"/><path class="cls-1" d="M67.6,121a3,3,0,1,1,0,5.9,3,3,0,1,1,0-5.9ZM65,129.3h5.1V146H65Z"/><path class="cls-1" d="M74.4,120h5.2v26H74.4Z"/><path class="cls-1" d="M95.1,145.1a7.8,7.8,0,0,1-4.3,1.3c-4.2,0-7.8-3.3-7.8-8.4a8.7,8.7,0,0,1,8.8-9.1,7.6,7.6,0,0,1,3.2.6h0V120h5.2v26H95.1v-.9ZM95,133.8a6.7,6.7,0,0,0-2.7-.6c-2.7,0-4.1,2-4.1,4.5s1.4,4.5,3.9,4.5a5,5,0,0,0,2.9-.9Z"/><path class="cls-1" d="M107.1,121a3,3,0,1,1,0,5.9,3,3,0,1,1,0-5.9Zm-2.6,8.3h5.2V146h-5.2Z"/><path class="cls-1" d="M113.9,129.3H119v1.5h.1a8.6,8.6,0,0,1,5.2-1.9,6.2,6.2,0,0,1,4.4,1.7c1,1.1,1.4,2.5,1.4,5V146H125v-9.6a3.2,3.2,0,0,0-.6-2.3,2.4,2.4,0,0,0-1.8-.7,6,6,0,0,0-3.5,1.3V146h-5.2Z"/><path class="cls-1" d="M135.7,147.7a10.1,10.1,0,0,0,5.4,1.7c2.5,0,4.1-1.3,4.1-3.7v-1h-.1a7.1,7.1,0,0,1-3.9,1.1,7.8,7.8,0,0,1-7.8-8.2,8.4,8.4,0,0,1,8.7-8.7,9.3,9.3,0,0,1,4.2,1l4-.8v16.6c0,5.2-3.6,8.2-8.9,8.2a14.1,14.1,0,0,1-5.7-1.3Zm9.5-13.8a7.1,7.1,0,0,0-2.6-.6c-2.7,0-3.9,2-3.9,4.1s1.5,4.2,3.9,4.2a5.6,5.6,0,0,0,2.6-.7Z"/><path class="cls-1" d="M22.5,172.1a15,15,0,0,0,7.8,2.5c2,0,3.5-.7,3.5-2.6s-2.3-2.5-5.5-3.5-6.5-2.8-6.5-7,3.5-7.5,8.7-7.5a16.6,16.6,0,0,1,7.5,1.8v5.3a16.2,16.2,0,0,0-7.6-2.4c-1.8,0-3.1.7-3.1,2.3s2.2,2.4,5.2,3.4,6.7,2.9,6.7,7.3-3.6,7.7-8.9,7.7a17.8,17.8,0,0,1-7.8-1.8Z"/><path class="cls-1" d="M53.3,177.4a7.6,7.6,0,0,1-5.1,2,5.7,5.7,0,0,1-4.3-1.7c-1.1-1.1-1.6-2.6-1.6-5.1V162.3h5.1v9.5a3.1,3.1,0,0,0,.7,2.4,2.3,2.3,0,0,0,1.8.8,5.6,5.6,0,0,0,3.4-1.5V162.3h5.2V179H53.4v-1.6Z"/><path class="cls-1" d="M62.8,162.3h5.1v2.2H68a5.4,5.4,0,0,1,4.8-2.5h1.1v4.9l-1.4-.2a5.3,5.3,0,0,0-4.5,2V179H62.8Z"/><path class="cls-1" d="M74.9,162.3h5.4l2,5.3c.6,1.8,1.3,3.6,1.9,5.3h0c.6-1.7,1.3-3.6,2-5.3l2.1-5.3h5.1L86.6,179H81.7Z"/><path class="cls-1" d="M99.3,172a4.6,4.6,0,0,0,4.8,3.4,10.2,10.2,0,0,0,5.7-1.9v4.3a11.8,11.8,0,0,1-6.3,1.6c-5.5,0-9.5-3.5-9.5-8.7a8.6,8.6,0,0,1,8.8-8.8c4.1,0,7.9,2.7,7.9,8.3a9.7,9.7,0,0,1-.1,1.8Zm6.7-3.3a3.3,3.3,0,0,0-3.3-2.9,3.6,3.6,0,0,0-3.5,2.9Z"/><path class="cls-1" d="M113.9,186.5l4.4-9.3-6.8-14.9H117l1.7,4.1c.7,1.8,1.5,3.6,2.1,5.3h.1l2.3-5.4,1.8-4h5.1l-10.9,24.2Z"/><path class="cls-1" d="M135,154a3,3,0,1,1-3,3A3,3,0,0,1,135,154Zm-2.6,8.3h5.2V179h-5.2Z"/><path class="cls-1" d="M141.9,162.3H147v1.5h.1a8.1,8.1,0,0,1,5.1-1.9,5.9,5.9,0,0,1,4.4,1.7c1,1.1,1.5,2.5,1.5,5V179h-5.2v-9.6a3.2,3.2,0,0,0-.6-2.3,2.1,2.1,0,0,0-1.7-.7,5.7,5.7,0,0,0-3.5,1.3V179h-5.2Z"/><path class="cls-1" d="M163.6,180.7a10.4,10.4,0,0,0,5.4,1.7c2.6,0,4.1-1.3,4.1-3.7v-1h0a7.4,7.4,0,0,1-3.9,1.1,7.8,7.8,0,0,1-7.8-8.2,8.4,8.4,0,0,1,8.7-8.7,8.6,8.6,0,0,1,4.1,1l4.1-.8v16.6c0,5.2-3.6,8.2-8.9,8.2a14.2,14.2,0,0,1-5.8-1.3Zm9.5-13.8a6.1,6.1,0,0,0-2.5-.6,3.8,3.8,0,0,0-4,4.1c0,2.5,1.5,4.2,3.9,4.2a5.6,5.6,0,0,0,2.6-.7Z"/><path class="cls-1" d="M199.6,168.3,196,163h-.1c.1,1.8.1,4.1.1,6.1V179h-5.2V154.4H196l7.3,10.4,7.3-10.4h5.2V179h-5.4V163h0l-3.6,5.3-3.6,5Z"/><path class="cls-1" d="M219.9,172.1a15.6,15.6,0,0,0,7.9,2.5c2,0,3.4-.7,3.4-2.6s-2.3-2.5-5.4-3.5-6.5-2.8-6.5-7,3.5-7.5,8.6-7.5a16.7,16.7,0,0,1,7.6,1.8v5.3a16.5,16.5,0,0,0-7.6-2.4c-1.8,0-3.2.7-3.2,2.3s2.3,2.4,5.3,3.4,6.7,2.9,6.7,7.3-3.7,7.7-9,7.7a18.5,18.5,0,0,1-7.8-1.8Z"/><path class="cls-1" d="M253.5,178.1a11.4,11.4,0,0,1-5.5,1.3c-5.3,0-9.3-3.7-9.3-8.7s4.4-8.8,9.6-8.8a11.2,11.2,0,0,1,5,1.1v4.8a9.6,9.6,0,0,0-4.8-1.5,4.3,4.3,0,0,0-4.6,4.3c0,2.6,1.9,4.4,4.7,4.4a8.3,8.3,0,0,0,4.9-1.7Z"/></svg>