<svg id="Layer_6" data-name="Layer 6" xmlns="http://www.w3.org/2000/svg" width="336" height="280" viewBox="0 0 336 280"><defs><style>.cls-1{fill:#fff;}</style></defs><title>copy2a</title><path class="cls-1" d="M34.3,146.4a12.7,12.7,0,0,1,.2-25.4,12.5,12.5,0,0,1,12.9,12.7,12.4,12.4,0,0,1-7.1,11.4h0a50,50,0,0,0,6.9,3.6l-4.9,2.9A33.7,33.7,0,0,1,34.3,146.4ZM42,133.7a7.5,7.5,0,1,0-7.5,7.8A7.5,7.5,0,0,0,42,133.7Z"/><path class="cls-1" d="M61.7,144.4a7.4,7.4,0,0,1-5.1,2,5.7,5.7,0,0,1-4.3-1.7c-1.1-1.1-1.6-2.6-1.6-5.1V129.3h5.2v9.5a3.7,3.7,0,0,0,.6,2.4,2.5,2.5,0,0,0,1.8.8,5.6,5.6,0,0,0,3.4-1.5V129.3h5.2V146H61.8v-1.6Z"/><path class="cls-1" d="M80.7,145a8.2,8.2,0,0,1-4.7,1.4,6.8,6.8,0,0,1-3.8-1.1,4.5,4.5,0,0,1-2-3.9,4.7,4.7,0,0,1,2-4.1,8.3,8.3,0,0,1,4.7-1.2,13.6,13.6,0,0,1,2.9.3v-.6a3,3,0,0,0-.6-1.8,4.3,4.3,0,0,0-2.6-.7,10.4,10.4,0,0,0-4.9,1.3v-4.4a12.8,12.8,0,0,1,5.8-1.3,8.7,8.7,0,0,1,5.6,1.6,5.4,5.4,0,0,1,1.9,4.6v5.7c0,.8.3,1.3,1,1.3a1.1,1.1,0,0,0,.8-.2v3.9a5.4,5.4,0,0,1-2.4.5,5,5,0,0,1-3.6-1.3Zm-.9-5.6-1.8-.2c-1.4,0-2.7.4-2.7,1.7s1,1.7,2.2,1.7a4.5,4.5,0,0,0,2.3-.7Z"/><path class="cls-1" d="M89.5,129.3h5.1v1.5h.1a8.6,8.6,0,0,1,5.2-1.9,5.8,5.8,0,0,1,4.3,1.7c1.1,1.1,1.5,2.5,1.5,5V146h-5.2v-9.6c0-1.2-.1-1.9-.5-2.3a2.4,2.4,0,0,0-1.8-.7,6,6,0,0,0-3.5,1.3V146H89.5Z"/><path class="cls-1" d="M120.8,145.5a7.9,7.9,0,0,1-3.8.9,6.2,6.2,0,0,1-4.4-1.7c-.8-.9-1.4-2.3-1.4-5v-6.1h-2.7v-4.3h2.7v-4.4l5.2-.9v5.3h4.4v4.3h-4.4v5.6c0,1.6.3,2.8,1.9,2.8a5.5,5.5,0,0,0,2.5-.7Z"/><path class="cls-1" d="M126.4,121a3,3,0,1,1,0,5.9,3,3,0,0,1,0-5.9Zm-2.5,8.3H129V146h-5.1Z"/><path class="cls-1" d="M144.2,145.5a8.2,8.2,0,0,1-3.8.9,6.2,6.2,0,0,1-4.4-1.7c-.8-.9-1.4-2.3-1.4-5v-6.1h-2.7v-4.3h2.7v-4.4l5.1-.9v5.3h4.5v4.3h-4.5v5.6c0,1.6.4,2.8,2,2.8a5.5,5.5,0,0,0,2.5-.7Z"/><path class="cls-1" d="M147.7,153.5l4.4-9.3-6.8-14.9h5.5l1.7,4.1c.7,1.8,1.5,3.6,2.1,5.3h.1c.7-1.8,1.5-3.6,2.3-5.4l1.7-4h5.2L153,153.5Z"/><path class="cls-1" d="M22.5,172.1a15,15,0,0,0,7.8,2.5c2,0,3.5-.7,3.5-2.6s-2.3-2.5-5.5-3.5-6.5-2.8-6.5-7,3.5-7.5,8.7-7.5a16.6,16.6,0,0,1,7.5,1.8v5.3a16.2,16.2,0,0,0-7.6-2.4c-1.8,0-3.1.7-3.1,2.3s2.2,2.4,5.2,3.4,6.7,2.9,6.7,7.3-3.6,7.7-8.9,7.7a17.8,17.8,0,0,1-7.8-1.8Z"/><path class="cls-1" d="M53.3,177.4a7.6,7.6,0,0,1-5.1,2,5.7,5.7,0,0,1-4.3-1.7c-1.1-1.1-1.6-2.6-1.6-5.1V162.3h5.1v9.5a3.1,3.1,0,0,0,.7,2.4,2.3,2.3,0,0,0,1.8.8,5.6,5.6,0,0,0,3.4-1.5V162.3h5.2V179H53.4v-1.6Z"/><path class="cls-1" d="M62.8,162.3h5.1v2.2H68a5.4,5.4,0,0,1,4.8-2.5h1.1v4.9l-1.4-.2a5.3,5.3,0,0,0-4.5,2V179H62.8Z"/><path class="cls-1" d="M74.9,162.3h5.4l2,5.3c.6,1.8,1.3,3.6,1.9,5.3h0c.6-1.7,1.3-3.6,2-5.3l2.1-5.3h5.1L86.6,179H81.7Z"/><path class="cls-1" d="M99.3,172a4.6,4.6,0,0,0,4.8,3.4,10.2,10.2,0,0,0,5.7-1.9v4.3a11.8,11.8,0,0,1-6.3,1.6c-5.5,0-9.5-3.5-9.5-8.7a8.6,8.6,0,0,1,8.8-8.8c4.1,0,7.9,2.7,7.9,8.3a9.7,9.7,0,0,1-.1,1.8Zm6.7-3.3a3.3,3.3,0,0,0-3.3-2.9,3.6,3.6,0,0,0-3.5,2.9Z"/><path class="cls-1" d="M113.9,186.5l4.4-9.3-6.8-14.9H117l1.7,4.1c.7,1.8,1.5,3.6,2.1,5.3h.1l2.3-5.4,1.8-4h5.1l-10.9,24.2Z"/><path class="cls-1" d="M135,154a3,3,0,1,1-3,3A3,3,0,0,1,135,154Zm-2.6,8.3h5.2V179h-5.2Z"/><path class="cls-1" d="M141.9,162.3H147v1.5h.1a8.1,8.1,0,0,1,5.1-1.9,5.9,5.9,0,0,1,4.4,1.7c1,1.1,1.5,2.5,1.5,5V179h-5.2v-9.6a3.2,3.2,0,0,0-.6-2.3,2.1,2.1,0,0,0-1.7-.7,5.7,5.7,0,0,0-3.5,1.3V179h-5.2Z"/><path class="cls-1" d="M163.6,180.7a10.4,10.4,0,0,0,5.4,1.7c2.6,0,4.1-1.3,4.1-3.7v-1h0a7.4,7.4,0,0,1-3.9,1.1,7.8,7.8,0,0,1-7.8-8.2,8.4,8.4,0,0,1,8.7-8.7,8.6,8.6,0,0,1,4.1,1l4.1-.8v16.6c0,5.2-3.6,8.2-8.9,8.2a14.2,14.2,0,0,1-5.8-1.3Zm9.5-13.8a6.1,6.1,0,0,0-2.5-.6,3.8,3.8,0,0,0-4,4.1c0,2.5,1.5,4.2,3.9,4.2a5.6,5.6,0,0,0,2.6-.7Z"/><path class="cls-1" d="M199.6,168.3,196,163h-.1c.1,1.8.1,4.1.1,6.1V179h-5.2V154.4H196l7.3,10.4,7.3-10.4h5.2V179h-5.4V163h0l-3.6,5.3-3.6,5Z"/><path class="cls-1" d="M219.9,172.1a15.6,15.6,0,0,0,7.9,2.5c2,0,3.4-.7,3.4-2.6s-2.3-2.5-5.4-3.5-6.5-2.8-6.5-7,3.5-7.5,8.6-7.5a16.7,16.7,0,0,1,7.6,1.8v5.3a16.5,16.5,0,0,0-7.6-2.4c-1.8,0-3.2.7-3.2,2.3s2.3,2.4,5.3,3.4,6.7,2.9,6.7,7.3-3.7,7.7-9,7.7a18.5,18.5,0,0,1-7.8-1.8Z"/><path class="cls-1" d="M253.5,178.1a11.4,11.4,0,0,1-5.5,1.3c-5.3,0-9.3-3.7-9.3-8.7s4.4-8.8,9.6-8.8a11.2,11.2,0,0,1,5,1.1v4.8a9.6,9.6,0,0,0-4.8-1.5,4.3,4.3,0,0,0-4.6,4.3c0,2.6,1.9,4.4,4.7,4.4a8.3,8.3,0,0,0,4.9-1.7Z"/></svg>