<svg id="Text" xmlns="http://www.w3.org/2000/svg" viewBox="0 0 336 280"><defs><style>.cls-1{fill:#fff;}</style></defs><title>copy1a</title><path class="cls-1" d="M22.59,112.94h8.06c4.14,0,6.7.47,8.5,1.48a5.63,5.63,0,0,1,3.13,5.07c0,2.45-1.4,4-4,5v.08c3.64,1.22,5,3.52,5,6.4a7,7,0,0,1-4.53,6.7A19.12,19.12,0,0,1,31.05,139H22.59Zm9,10.4c2.23,0,3.28-.68,3.28-2.27a1.84,1.84,0,0,0-1.08-1.83,6.5,6.5,0,0,0-2.92-.4H30v4.5Zm-.5,9.76a8.7,8.7,0,0,0,3.81-.51,2,2,0,0,0,1.05-2c0-1.76-1.23-2.52-3.6-2.52H30v5Z"/><path class="cls-1" d="M69.93,126.65c0,4-.76,6.7-2.2,8.61-1.94,2.59-5.5,4.14-9.86,4.14s-8-1.48-10-4.25c-1.37-1.91-2-4.68-2-8.5V112.94h7.42v13.28c0,2.52.28,4,1,5A4.45,4.45,0,0,0,58,133a4.37,4.37,0,0,0,3.57-1.51c.83-1,1.22-2.66,1.22-5.22V112.94h7.13Z"/><path class="cls-1" d="M73.82,112.94h7.41V139H73.82Z"/><path class="cls-1" d="M85.34,112.94h7.41v19.8h10.87V139H85.34Z"/><path class="cls-1" d="M106.18,112.94h7.49c5.4,0,9.47.9,12.24,3s4.46,5.68,4.46,10.08c0,3.88-1.22,7.12-3.71,9.39s-6.58,3.6-12.85,3.6h-7.63Zm7.71,19.8c4.71,0,6.62-.94,7.73-2.27A6.88,6.88,0,0,0,123,126c0-2.45-.76-4.22-2.24-5.33s-4-1.48-6.87-1.48h-.25v13.54Z"/></svg>