<svg id="Text" xmlns="http://www.w3.org/2000/svg" width="336" height="280" viewBox="0 0 336 280"><defs><style>.cls-1{fill:#fff;}</style></defs><title>copy3</title><path class="cls-1" d="M22.8,121.4h6.9c4.4,0,7.8.7,10.3,2.5s4.7,5.5,4.7,9.8a11.9,11.9,0,0,1-4,9.3c-2.5,2-6.1,3-11.3,3H22.8Zm6.9,19.9c3.5,0,5.7-.6,7.3-2a8,8,0,0,0-.5-11.7c-1.7-1.2-4.1-1.5-6.8-1.5H28.2v15.2Z"/><path class="cls-1" d="M50.5,121a3,3,0,1,1,0,5.9,3,3,0,1,1,0-5.9Zm-2.6,8.3h5.2V146H47.9Z"/><path class="cls-1" d="M56.9,140.5a14.9,14.9,0,0,0,6.6,1.9c1.4,0,2.3-.4,2.3-1.3s-1.9-1.2-4.4-1.8-5-2.1-5-4.9,3.1-5.5,7.3-5.5a15.9,15.9,0,0,1,6.4,1.3v4.5a13.5,13.5,0,0,0-6.3-1.8c-1.4,0-2.2.4-2.2,1.2s1.8,1.1,4.3,1.7,5.1,2,5.1,4.9-3.2,5.7-7.5,5.7a15.7,15.7,0,0,1-6.6-1.4Z"/><path class="cls-1" d="M85,145.5a7.5,7.5,0,0,1-3.7.9,6.2,6.2,0,0,1-4.4-1.7c-.9-.9-1.5-2.3-1.5-5v-6.1H72.7v-4.3h2.7v-4.4l5.2-.9v5.3H85v4.3H80.6v5.6c0,1.6.4,2.8,2,2.8a4.8,4.8,0,0,0,2.4-.7Z"/><path class="cls-1" d="M97.5,145a7.6,7.6,0,0,1-4.6,1.4,7.4,7.4,0,0,1-3.9-1.1,4.9,4.9,0,0,1,.1-8,8.1,8.1,0,0,1,4.7-1.2,14.3,14.3,0,0,1,2.9.3v-.6A2.5,2.5,0,0,0,96,134a4,4,0,0,0-2.6-.7,11.1,11.1,0,0,0-4.9,1.3v-4.4a13.2,13.2,0,0,1,5.9-1.3,9.1,9.1,0,0,1,5.6,1.6,5.6,5.6,0,0,1,1.8,4.6v5.7c0,.8.3,1.3,1.1,1.3a1.3,1.3,0,0,0,.8-.2v3.9a5.8,5.8,0,0,1-2.5.5,5.2,5.2,0,0,1-3.6-1.3Zm-.8-5.6-1.9-.2c-1.3,0-2.6.4-2.6,1.7s.9,1.7,2.1,1.7a4.5,4.5,0,0,0,2.4-.7Z"/><path class="cls-1" d="M106.4,129.3h5.1v1.5h.1a8.1,8.1,0,0,1,5.1-1.9,5.9,5.9,0,0,1,4.4,1.7c1,1.1,1.5,2.5,1.5,5V146h-5.2v-9.6a3.2,3.2,0,0,0-.6-2.3,2.1,2.1,0,0,0-1.7-.7,5.7,5.7,0,0,0-3.5,1.3V146h-5.2Z"/><path class="cls-1" d="M140.6,145.1a11.4,11.4,0,0,1-5.5,1.3c-5.4,0-9.3-3.7-9.3-8.7s4.3-8.8,9.6-8.8a10.7,10.7,0,0,1,4.9,1.1v4.8a9.3,9.3,0,0,0-4.7-1.5c-2.8,0-4.7,1.8-4.7,4.3s2,4.4,4.8,4.4a8.3,8.3,0,0,0,4.9-1.7Z"/><path class="cls-1" d="M148.3,139c.6,2.3,2.5,3.4,4.9,3.4a10.5,10.5,0,0,0,5.7-1.9v4.3a12.2,12.2,0,0,1-6.4,1.6c-5.5,0-9.5-3.5-9.5-8.7a8.7,8.7,0,0,1,8.8-8.8c4.1,0,8,2.7,8,8.3a9.7,9.7,0,0,1-.1,1.8Zm6.7-3.3a3.3,3.3,0,0,0-3.3-2.9,3.5,3.5,0,0,0-3.4,2.9Z"/><path class="cls-1" d="M171.2,120h5.2v26h-5.2Z"/><path class="cls-1" d="M184.9,139c.6,2.3,2.5,3.4,4.9,3.4a10.5,10.5,0,0,0,5.7-1.9v4.3a12.4,12.4,0,0,1-6.4,1.6c-5.5,0-9.5-3.5-9.5-8.7a8.7,8.7,0,0,1,8.8-8.8c4.1,0,8,2.7,8,8.3a9.7,9.7,0,0,1-.1,1.8Zm6.7-3.3a3.3,3.3,0,0,0-3.3-2.9,3.4,3.4,0,0,0-3.4,2.9Z"/><path class="cls-1" d="M209.2,145a8.2,8.2,0,0,1-4.7,1.4,7.4,7.4,0,0,1-3.9-1.1,4.7,4.7,0,0,1-1.9-3.9,4.7,4.7,0,0,1,2-4.1,8.3,8.3,0,0,1,4.7-1.2,13.6,13.6,0,0,1,2.9.3v-.6a2.5,2.5,0,0,0-.7-1.8,3.7,3.7,0,0,0-2.5-.7,10.4,10.4,0,0,0-4.9,1.3v-4.4a12.8,12.8,0,0,1,5.8-1.3,8.9,8.9,0,0,1,5.6,1.6,5.7,5.7,0,0,1,1.9,4.6v5.7c0,.8.3,1.3,1,1.3a1.3,1.3,0,0,0,.8-.2v3.9a5.8,5.8,0,0,1-2.5.5,5.3,5.3,0,0,1-3.6-1.3Zm-.9-5.6-1.9-.2c-1.3,0-2.6.4-2.6,1.7s.9,1.7,2.1,1.7a4.5,4.5,0,0,0,2.4-.7Z"/><path class="cls-1" d="M218,129.3h5.1v2.2h0a5.6,5.6,0,0,1,4.9-2.5h1.1v4.9l-1.4-.2a5.3,5.3,0,0,0-4.5,2V146H218Z"/><path class="cls-1" d="M231.6,129.3h5.1v1.5h.1a8.6,8.6,0,0,1,5.2-1.9,6.2,6.2,0,0,1,4.4,1.7c1,1.1,1.4,2.5,1.4,5V146h-5.1v-9.6a3.2,3.2,0,0,0-.6-2.3,2.4,2.4,0,0,0-1.8-.7,6,6,0,0,0-3.5,1.3V146h-5.2Z"/><path class="cls-1" d="M254.6,121a3,3,0,1,1,0,5.9,3,3,0,1,1,0-5.9Zm-2.6,8.3h5.2V146H252Z"/><path class="cls-1" d="M261.5,129.3h5.1v1.5h.1a8.3,8.3,0,0,1,5.1-1.9,5.9,5.9,0,0,1,4.4,1.7c1,1.1,1.5,2.5,1.5,5V146h-5.2v-9.6a3.2,3.2,0,0,0-.6-2.3,2.1,2.1,0,0,0-1.7-.7,5.7,5.7,0,0,0-3.5,1.3V146h-5.2Z"/><path class="cls-1" d="M283.3,147.7a10.1,10.1,0,0,0,5.4,1.7c2.5,0,4-1.3,4-3.7v-1h0a7.1,7.1,0,0,1-3.9,1.1,7.8,7.8,0,0,1-7.8-8.2,8.4,8.4,0,0,1,8.7-8.7,9.3,9.3,0,0,1,4.2,1l4-.8v16.6c0,5.2-3.6,8.2-8.9,8.2a13.3,13.3,0,0,1-5.7-1.3Zm9.4-13.8a6.1,6.1,0,0,0-2.5-.6,3.8,3.8,0,0,0-4,4.1c0,2.5,1.5,4.2,3.9,4.2a5.6,5.6,0,0,0,2.6-.7Z"/><path class="cls-1" d="M32.1,178a8.2,8.2,0,0,1-4.7,1.4,7,7,0,0,1-3.8-1.1,4.5,4.5,0,0,1-2-3.9,4.7,4.7,0,0,1,2-4.1,8.3,8.3,0,0,1,4.7-1.2,13.6,13.6,0,0,1,2.9.3v-.6a3,3,0,0,0-.6-1.8,4.3,4.3,0,0,0-2.6-.7,10.4,10.4,0,0,0-4.9,1.3v-4.4a12.8,12.8,0,0,1,5.8-1.3,8.7,8.7,0,0,1,5.6,1.6,5.4,5.4,0,0,1,1.9,4.6v5.7c0,.8.3,1.3,1,1.3a1.5,1.5,0,0,0,.9-.2v3.9a5.8,5.8,0,0,1-2.5.5,5,5,0,0,1-3.6-1.3Zm-.9-5.6-1.8-.2c-1.3,0-2.7.4-2.7,1.7s1,1.7,2.2,1.7a4.2,4.2,0,0,0,2.3-.7Z"/><path class="cls-1" d="M51.8,178.5a7.9,7.9,0,0,1-3.8.9,5.8,5.8,0,0,1-4.3-1.7c-.9-.9-1.5-2.3-1.5-5v-6.1H39.5v-4.3h2.7v-4.4l5.2-.9v5.3h4.4v4.3H47.4v5.6c0,1.6.3,2.8,1.9,2.8a5.2,5.2,0,0,0,2.5-.7Z"/><path class="cls-1" d="M72.9,169.1l-4.7-6.4h0V179H63V154.4h5.1l7.4,9.9c1.6,2.2,3.1,4.2,4.6,6.4h.1c0-2.3-.1-4.7-.1-7.1v-9.1h5.2V179H80.2Z"/><path class="cls-1" d="M98,161.9c5.3,0,9.3,3.8,9.3,8.7s-4,8.8-9.3,8.8-9.3-3.8-9.3-8.8S92.7,161.9,98,161.9Zm0,13a4.3,4.3,0,1,0-4.2-4.3A4.2,4.2,0,0,0,98,174.9Z"/><path class="cls-1" d="M110.5,162.3h5.1v2.2h.1a5.4,5.4,0,0,1,4.8-2.5h1.1v4.9l-1.4-.2a5.3,5.3,0,0,0-4.5,2V179h-5.2Z"/><path class="cls-1" d="M135.3,178.5a7.9,7.9,0,0,1-3.8.9,5.8,5.8,0,0,1-4.3-1.7c-.9-.9-1.5-2.3-1.5-5v-6.1H123v-4.3h2.7v-4.4l5.2-.9v5.3h4.4v4.3h-4.4v5.6c0,1.6.3,2.8,1.9,2.8a5.2,5.2,0,0,0,2.5-.7Z"/><path class="cls-1" d="M138.4,153h5.1v10.8h.1a8.1,8.1,0,0,1,5.1-1.9,6,6,0,0,1,4.4,1.7c1,1.1,1.5,2.5,1.5,5V179h-5.2v-9.6a3.2,3.2,0,0,0-.6-2.3,2.1,2.1,0,0,0-1.7-.7,6.3,6.3,0,0,0-3.6,1.3V179h-5.1Z"/><path class="cls-1" d="M169.8,177.4a7.6,7.6,0,0,1-5.1,2,5.7,5.7,0,0,1-4.3-1.7c-1.1-1.1-1.6-2.6-1.6-5.1V162.3h5.1v9.5a3.6,3.6,0,0,0,.7,2.4,2.3,2.3,0,0,0,1.8.8,5.6,5.6,0,0,0,3.4-1.5V162.3H175V179h-5.1v-1.6Z"/><path class="cls-1" d="M201,169.3a2.9,2.9,0,0,0-.6-2.2,2.4,2.4,0,0,0-1.8-.7,5.7,5.7,0,0,0-3.3,1.3V179h-5.1v-9.7a3,3,0,0,0-.6-2.2,2.4,2.4,0,0,0-1.8-.7,5.7,5.7,0,0,0-3.3,1.3V179h-5.1V162.3h5.1v1.5h0a7.8,7.8,0,0,1,5.1-1.9,5.5,5.5,0,0,1,4.8,2.4,8.8,8.8,0,0,1,5.9-2.4,5.5,5.5,0,0,1,4.3,1.7c1.1,1.1,1.5,2.5,1.5,4.9V179H201Z"/><path class="cls-1" d="M210.4,153h5.1v10h.1a7.4,7.4,0,0,1,4.1-1.2c4.2,0,7.9,3.2,7.9,8.4a8.7,8.7,0,0,1-9,9.1,10.4,10.4,0,0,1-4.2-.9l-4,.7Zm7.8,22.2c2.8,0,4.2-2.2,4.2-4.6s-1.5-4.4-4-4.4a6.6,6.6,0,0,0-2.9.8v7.5A5.7,5.7,0,0,0,218.2,175.2Z"/><path class="cls-1" d="M230.9,162.3H236v2.2h.1a5.4,5.4,0,0,1,4.8-2.5H242v4.9l-1.4-.2a5.3,5.3,0,0,0-4.5,2V179h-5.2Z"/><path class="cls-1" d="M247.1,154a3,3,0,1,1,0,5.9,3,3,0,0,1,0-5.9Zm-2.5,8.3h5.1V179h-5.1Z"/><path class="cls-1" d="M263.4,178a7.9,7.9,0,0,1-4.6,1.4,7.1,7.1,0,0,1-3.9-1.1,4.9,4.9,0,0,1,.1-8,8.1,8.1,0,0,1,4.7-1.2,13.3,13.3,0,0,1,2.8.3v-.6a2.4,2.4,0,0,0-.6-1.8,4.3,4.3,0,0,0-2.6-.7,10.4,10.4,0,0,0-4.9,1.3v-4.4a13.2,13.2,0,0,1,5.9-1.3,8.6,8.6,0,0,1,5.5,1.6,5.4,5.4,0,0,1,1.9,4.6v5.7c0,.8.3,1.3,1,1.3a1.5,1.5,0,0,0,.9-.2v3.9a5.8,5.8,0,0,1-2.5.5,5,5,0,0,1-3.6-1.3Zm-.9-5.6-1.8-.2c-1.3,0-2.6.4-2.6,1.7s.9,1.7,2.1,1.7a4.2,4.2,0,0,0,2.3-.7Z"/></svg>