<svg id="Text" xmlns="http://www.w3.org/2000/svg" viewBox="0 0 336 280"><defs><style>.cls-1{fill:#fff;}</style></defs><title>copy1c</title><path class="cls-1" d="M22.59,178.94H40.05v6.26H30V189h8.46v5.9H30V205H22.59Z"/><path class="cls-1" d="M67.37,192.65c0,4-.75,6.7-2.19,8.61-2,2.59-5.51,4.14-9.87,4.14s-8-1.48-10-4.25c-1.37-1.91-2.05-4.68-2.05-8.5V178.94h7.41v13.28c0,2.52.29,4,1,5A4.43,4.43,0,0,0,55.46,199,4.34,4.34,0,0,0,59,197.44c.83-1,1.23-2.66,1.23-5.22V178.94h7.12Z"/><path class="cls-1" d="M77.71,185.2H69.43v-6.26h24v6.26H85.12V205H77.71Z"/><path class="cls-1" d="M119.57,192.65c0,4-.75,6.7-2.19,8.61-1.95,2.59-5.51,4.14-9.87,4.14s-8-1.48-10-4.25c-1.37-1.91-2.05-4.68-2.05-8.5V178.94h7.41v13.28c0,2.52.29,4,1,5a4.43,4.43,0,0,0,3.78,1.73,4.35,4.35,0,0,0,3.56-1.51c.83-1,1.22-2.66,1.22-5.22V178.94h7.13Z"/><path class="cls-1" d="M123.46,178.94h9.11a16.16,16.16,0,0,1,7.31,1.3,7.09,7.09,0,0,1,4.21,6.8,7.18,7.18,0,0,1-4.79,7L146.21,205h-8.39L132,195.1h-1.15V205h-7.42ZM132.71,190a5.82,5.82,0,0,0,2.92-.54,2.52,2.52,0,0,0-.22-4.22,7.63,7.63,0,0,0-3.16-.43h-1.37V190Z"/><path class="cls-1" d="M147.55,178.94h17v6.26H155v3.31h8.1v5.91H155v4.32h10V205H147.55Z"/><path class="cls-1" d="M172.06,197.69a3.86,3.86,0,1,1-3.89,3.85A3.87,3.87,0,0,1,172.06,197.69Z"/></svg>