<svg id="Text" xmlns="http://www.w3.org/2000/svg" viewBox="0 0 336 280"><defs><style>.cls-1{fill:#fff;}</style></defs><title>copy1b</title><path class="cls-1" d="M30.11,160.34,20,145.94h8.64L31,149.61c1,1.48,2,3.06,2.88,4.54H34c.93-1.52,1.87-3,2.8-4.47l2.42-3.74h8.42L37.53,160.19V172H30.11Z"/><path class="cls-1" d="M59.85,145.54c7.85,0,13.93,5.91,13.93,13.43S67.7,172.4,59.85,172.4,45.92,166.49,45.92,159,52,145.54,59.85,145.54Zm0,20.2A6.78,6.78,0,1,0,53.34,159,6.58,6.58,0,0,0,59.85,165.74Z"/><path class="cls-1" d="M100.89,159.65c0,4-.76,6.7-2.2,8.61-1.94,2.59-5.5,4.14-9.86,4.14s-8-1.48-10-4.25c-1.36-1.91-2-4.68-2-8.5V145.94h7.42v13.28c0,2.52.29,4,1,5A4.43,4.43,0,0,0,89,166a4.37,4.37,0,0,0,3.57-1.51c.83-1,1.22-2.66,1.22-5.22V145.94h7.13Z"/><path class="cls-1" d="M104.78,145.94h9.11a16.28,16.28,0,0,1,7.3,1.3,7.09,7.09,0,0,1,4.21,6.8,7.18,7.18,0,0,1-4.78,7L127.53,172h-8.39l-5.79-9.9h-1.16V172h-7.41ZM114,157a5.75,5.75,0,0,0,2.91-.54,2.19,2.19,0,0,0,1-2.06,2.21,2.21,0,0,0-1.26-2.16,7.69,7.69,0,0,0-3.17-.43h-1.37V157Z"/></svg>