<svg id="CTA" xmlns="http://www.w3.org/2000/svg" width="336" height="280" viewBox="0 0 336 280"><defs><style>.cls-1{fill:#fff;}.cls-2{fill:#1d1d1b;}</style></defs><title>cta</title><path class="cls-1" d="M80.9,250.3h9.2v2.8H84.2v3h5.1v2.7H84.2v3.6h6.2v2.9H80.9Z"/><path class="cls-1" d="M98.5,259.2l-2.8-3.9h-.1c0,1.4.1,2.8.1,4.3v5.6H92.5v-15h3.1l4.5,6,2.8,3.9h.1c-.1-1.5-.1-2.9-.1-4.4v-5.5h3.2v15H103Z"/><path class="cls-1" d="M115.9,265.5a7.8,7.8,0,1,1,7.9-7.7,7.5,7.5,0,0,1-4.3,6.9h0a33.6,33.6,0,0,0,4.2,2.2l-3,1.7A18.3,18.3,0,0,1,115.9,265.5Zm4.6-7.7a4.5,4.5,0,1,0-4.5,4.7A4.6,4.6,0,0,0,120.5,257.8Z"/><path class="cls-1" d="M138.8,258a9.2,9.2,0,0,1-1.1,5.1,6.5,6.5,0,0,1-5.4,2.4,6.1,6.1,0,0,1-5.4-2.5,8.7,8.7,0,0,1-1.1-4.9v-7.8h3.3v7.6a6.9,6.9,0,0,0,.5,3.3,3.3,3.3,0,0,0,2.8,1.3,3,3,0,0,0,2.6-1.2,5.8,5.8,0,0,0,.7-3.3v-7.7h3.1Z"/><path class="cls-1" d="M141.4,250.3h3.3v15h-3.3Z"/><path class="cls-1" d="M147.5,250.3h4.7a8.5,8.5,0,0,1,4.6,1,3.7,3.7,0,0,1,1.8,3.5,4.1,4.1,0,0,1-3,4.1l4.2,6.4H156l-3.8-6h-1.4v6h-3.3Zm4.9,6.6a4.1,4.1,0,0,0,2.1-.4,1.6,1.6,0,0,0,.8-1.5,1.5,1.5,0,0,0-.8-1.5,6.7,6.7,0,0,0-2.5-.4h-1.2v3.8Z"/><path class="cls-1" d="M161,250.3h9.3v2.8h-6v3h5.1v2.7h-5.1v3.6h6.2v2.9H161Z"/><path class="cls-1" d="M183.5,259.2l-2.8-3.9h0v9.9h-3.2v-15h3.1l4.5,6,2.9,3.9h0v-9.9h3.1v15H188Z"/><path class="cls-1" d="M193.2,257.8a7.9,7.9,0,1,1,7.8,7.7A7.7,7.7,0,0,1,193.2,257.8Zm12.4,0a4.6,4.6,0,1,0-4.6,4.7A4.6,4.6,0,0,0,205.6,257.8Z"/><path class="cls-1" d="M209.1,250.3h3.4l1.9,6.4c.4,1.3.8,2.6,1.1,3.9h0l1.2-3.9,2-6.4h2.4l2,6.4c.3,1.3.7,2.6,1.1,3.9h0l1.2-4,1.9-6.3h3.3l-4.6,15h-3.5l-1.6-5.3c-.4-1.3-.8-2.4-1.1-3.6h0c-.4,1.2-.7,2.4-1.1,3.6l-1.6,5.3h-3.5Z"/><circle class="cls-1" cx="248" cy="258.1" r="8.5"/><rect class="cls-2" x="244.5" y="259.2" width="7.8" height="1.8" transform="translate(-111.2 251.8) rotate(-45)"/><rect class="cls-2" x="244.5" y="255" width="7.8" height="1.8" transform="translate(253.7 -100.7) rotate(45)"/></svg>