<svg id="Logo" xmlns="http://www.w3.org/2000/svg" xmlns:xlink="http://www.w3.org/1999/xlink" viewBox="0 0 336 280"><defs><style>.cls-1{fill:none;}.cls-2{fill:#fff;}.cls-3{clip-path:url(#clip-path);}</style><clipPath id="clip-path"><rect class="cls-1" x="20" y="20" width="157.63" height="50"/></clipPath></defs><title>336x280 Frame 1</title><polygon class="cls-2" points="40.59 69.88 40.59 69.88 40.59 69.88 40.59 69.88 40.59 69.88"/><path class="cls-2" d="M74.76,29c0-1.27,0-2.53,0-3.78l0,0c.82,1.14,1.61,2.24,2.46,3.38l3.92,5.28h2.71V20.72H81.09v4.86c0,1.27,0,2.53,0,3.78l0,0c-.82-1.14-1.61-2.24-2.46-3.38l-3.92-5.28H72V33.81h2.76V29Z"/><path class="cls-2" d="M89.94,27.08a2.28,2.28,0,1,1-2.21,2.28,2.22,2.22,0,0,1,2.21-2.28Zm0,6.93a4.66,4.66,0,1,0-5-4.65,4.72,4.72,0,0,0,5,4.65Z"/><path class="cls-2" d="M98.79,28.42a3,3,0,0,1,2.4-1.05,3.5,3.5,0,0,1,.75.09V24.88a2.41,2.41,0,0,0-.58-.07,3,3,0,0,0-2.59,1.32l0,0V24.92H96v8.89h2.75V28.42Z"/><g class="cls-3"><path class="cls-2" d="M104.6,30.46a3.64,3.64,0,0,0,.78,2.66,3.12,3.12,0,0,0,2.31.89,4.13,4.13,0,0,0,2-.49V31.33a3.2,3.2,0,0,1-1.32.36c-.83,0-1-.65-1-1.52v-3h2.35V24.92h-2.35V22.13l-2.75.47v2.32h-1.44v2.27h1.44v3.27Z"/><path class="cls-2" d="M113.81,27.83a3.19,3.19,0,0,1,1.86-.75,1.17,1.17,0,0,1,.94.38,1.76,1.76,0,0,1,.31,1.25v5.1h2.74V28.26a3.6,3.6,0,0,0-.77-2.64,3.19,3.19,0,0,0-2.33-.9,4.32,4.32,0,0,0-2.72,1l0,0V20h-2.75V33.81h2.75v-6Z"/></g><path class="cls-2" d="M124.23,34a4,4,0,0,0,2.71-1l0,0v.83h2.71V24.92h-2.75v5.94a2.76,2.76,0,0,1-1.81.8,1.25,1.25,0,0,1-1-.4,1.75,1.75,0,0,1-.35-1.28V24.92h-2.74v5.47a3.63,3.63,0,0,0,.85,2.73,3.13,3.13,0,0,0,2.31.89Z"/><g class="cls-3"><path class="cls-2" d="M134.19,27.81a2.88,2.88,0,0,1,1.73-.73,1.23,1.23,0,0,1,.94.38,1.67,1.67,0,0,1,.33,1.21v5.14h2.74V28.22c0-.12,0-.27,0-.39a2.77,2.77,0,0,1,1.75-.75,1.23,1.23,0,0,1,.94.38,1.63,1.63,0,0,1,.32,1.21v5.14h2.75V28.22a3.49,3.49,0,0,0-.81-2.62,3.12,3.12,0,0,0-2.3-.88A4.58,4.58,0,0,0,139.45,26a3,3,0,0,0-2.59-1.26,4.09,4.09,0,0,0-2.67,1l0,0v-.79h-2.71v8.89h2.75v-6Z"/><path class="cls-2" d="M150.11,27.45a3,3,0,0,1,1.52-.44,2.11,2.11,0,0,1,2.13,2.32,2.23,2.23,0,0,1-2.24,2.45,3.09,3.09,0,0,1-1.41-.34v-4ZM151.72,34a4.64,4.64,0,0,0,4.8-4.81,4.22,4.22,0,0,0-4.19-4.48,4,4,0,0,0-2.18.61l0,0V20h-2.75V33.92l2.15-.37a5.6,5.6,0,0,0,2.21.46Z"/></g><path class="cls-2" d="M160.38,26.13l0,0V24.92h-2.69v8.89h2.74V28.42a3,3,0,0,1,2.41-1.05,3.49,3.49,0,0,1,.74.09V24.88a2.41,2.41,0,0,0-.58-.07,3,3,0,0,0-2.59,1.32Z"/><polygon class="cls-2" points="164.9 33.81 167.65 33.81 167.65 24.92 164.9 24.92 164.9 33.81 164.9 33.81"/><path class="cls-2" d="M166.28,20.52a1.58,1.58,0,1,0,1.59,1.58,1.59,1.59,0,0,0-1.59-1.58Z"/><path class="cls-2" d="M173.89,31.62a2.48,2.48,0,0,1-1.25.36c-.63,0-1.14-.31-1.14-.88s.71-.91,1.41-.91a3.67,3.67,0,0,1,1,.13v1.3Zm3.29.13c-.38,0-.54-.29-.54-.71V28a2.92,2.92,0,0,0-1-2.45,4.67,4.67,0,0,0-3-.85,7.1,7.1,0,0,0-3.11.68v2.37a5.57,5.57,0,0,1,2.6-.7,2.05,2.05,0,0,1,1.38.38,1.28,1.28,0,0,1,.34.94v.34a7.06,7.06,0,0,0-1.54-.16,4.39,4.39,0,0,0-2.49.63,2.53,2.53,0,0,0-1.08,2.15,2.42,2.42,0,0,0,1,2.08,3.6,3.6,0,0,0,2.06.58,4.37,4.37,0,0,0,2.48-.74h0a2.6,2.6,0,0,0,1.91.7,3,3,0,0,0,1.32-.27V31.64a1.06,1.06,0,0,1-.45.11Z"/><path class="cls-2" d="M83.4,38.82H80.63v6.72a5.33,5.33,0,0,1-.56,2.89,2.54,2.54,0,0,1-2.31,1.08,2.65,2.65,0,0,1-2.39-1.13,5.47,5.47,0,0,1-.5-2.86v-6.7H72v6.81A7.74,7.74,0,0,0,73,50a6.3,6.3,0,0,0,9.42,0,7.54,7.54,0,0,0,1-4.44V38.82Z"/><path class="cls-2" d="M91,51.88h2.74V46.33A3.55,3.55,0,0,0,93,43.7a3.22,3.22,0,0,0-2.34-.91,4.32,4.32,0,0,0-2.74,1l0,0V43H85.13v8.89h2.75v-6a3.15,3.15,0,0,1,1.86-.74,1.19,1.19,0,0,1,.94.38A1.8,1.8,0,0,1,91,46.79v5.09Z"/><polygon class="cls-2" points="95.44 51.88 98.18 51.88 98.18 42.99 95.44 42.99 95.44 51.88 95.44 51.88"/><path class="cls-2" d="M96.81,41.74a1.57,1.57,0,1,0-1.59-1.57,1.58,1.58,0,0,0,1.59,1.57Z"/><path class="cls-2" d="M105.67,51.88,109.28,43h-2.71l-1.1,2.84c-.36.92-.74,1.93-1.07,2.84h0c-.3-.91-.65-1.88-1-2.82L102.32,43H99.43l3.62,8.89Z"/><path class="cls-2" d="M113.91,44.89a1.73,1.73,0,0,1,1.75,1.53h-3.58a1.84,1.84,0,0,1,1.83-1.53Zm3.8,4.08a5.58,5.58,0,0,1-3,1,2.41,2.41,0,0,1-2.59-1.79h6a6.75,6.75,0,0,0,0-.94A4.12,4.12,0,0,0,114,42.79a4.59,4.59,0,0,0-4.67,4.68c0,2.79,2.12,4.61,5,4.61a6.87,6.87,0,0,0,3.38-.81V49Z"/><path class="cls-2" d="M125.57,43a2.41,2.41,0,0,0-.58-.07,3,3,0,0,0-2.58,1.32l0,0V43h-2.69v8.89h2.75V46.5a2.94,2.94,0,0,1,2.4-1,3.49,3.49,0,0,1,.74.09V43Z"/><path class="cls-2" d="M129.27,48.32c1.34.35,2.33.27,2.33,1,0,.49-.45.69-1.21.69a7.65,7.65,0,0,1-3.51-1v2.4a8.52,8.52,0,0,0,3.51.74c2.28,0,4-1.07,4-3,0-1.53-1-2.18-2.72-2.6-1.32-.32-2.28-.27-2.28-.92,0-.42.43-.63,1.15-.63a7.6,7.6,0,0,1,3.35,1V43.5a8.27,8.27,0,0,0-3.4-.71c-2.2,0-3.87,1.07-3.88,3,0,1.46,1,2.17,2.67,2.58Z"/><polygon class="cls-2" points="135.85 51.88 138.6 51.88 138.6 42.99 135.85 42.99 135.85 51.88 135.85 51.88"/><path class="cls-2" d="M137.23,41.74a1.57,1.57,0,1,0-1.59-1.57,1.58,1.58,0,0,0,1.59,1.57Z"/><path class="cls-2" d="M146.5,51.59V49.41a3.15,3.15,0,0,1-1.31.36c-.84,0-1-.65-1-1.52v-3h2.35V43h-2.35V40.21l-2.74.47V43H140v2.28h1.45v3.27a3.64,3.64,0,0,0,.78,2.66,3.14,3.14,0,0,0,2.31.88,4.06,4.06,0,0,0,2-.49Z"/><path class="cls-2" d="M148.54,55.86h2.81L157.13,43H154.4l-.94,2.15c-.42,1-.81,1.9-1.21,2.87h0c-.36-.92-.74-1.86-1.14-2.81L150.15,43h-2.89l3.61,7.92-2.33,5Z"/><path class="cls-2" d="M79.47,64.24c0,1,0,2,0,2.93h0c-.56-.77-1.12-1.54-1.72-2.34l-3.5-4.66H72.64v9.67h1.65V65.79c0-1,0-2,0-2.92l0,0c.56.78,1.12,1.54,1.72,2.34l3.5,4.66h1.6V60.18H79.47v4.06Z"/><polygon class="cls-2" points="85.06 65.54 88.6 65.54 88.6 64.09 85.06 64.09 85.06 61.69 89.13 61.69 89.13 60.18 83.36 60.18 83.36 69.85 89.27 69.85 89.27 68.34 85.06 68.34 85.06 65.54 85.06 65.54"/><path class="cls-2" d="M101.16,64.87c-.26.83-.51,1.74-.74,2.57h0c-.24-.86-.46-1.61-.76-2.56l-1.45-4.7H96.93l-1.45,4.69c-.26.83-.54,1.75-.76,2.57h0c-.23-.83-.48-1.71-.74-2.56l-1.41-4.7h-1.8l3,9.67h1.81l1.29-4.17c.24-.78.47-1.54.68-2.29h0c.22.75.46,1.53.7,2.32l1.28,4.14h1.8l3-9.67h-1.72l-1.41,4.69Z"/><path class="cls-2" d="M106.72,65a3.33,3.33,0,0,1,3.46-3.45,4.77,4.77,0,0,1,2.7.87V60.68a5.76,5.76,0,0,0-2.7-.65,5,5,0,1,0,0,10,5.84,5.84,0,0,0,2.83-.69v-1.8a4.5,4.5,0,0,1-2.75.94A3.36,3.36,0,0,1,106.72,65Z"/><path class="cls-2" d="M120.87,66.1H117.8l.56-1.46c.34-.87.64-1.69,1-2.59h0c.31.87.63,1.72,1,2.59l.56,1.46Zm-2.33-5.92-4,9.67h1.75l.93-2.36h4.17l.92,2.36h1.81l-4-9.67Z"/><path class="cls-2" d="M129.22,64.24c-1.16-.36-2.17-.49-2.17-1.52,0-.82.64-1.18,1.55-1.18a5.62,5.62,0,0,1,2.88.91V60.74a6,6,0,0,0-2.87-.71c-2,0-3.26,1.06-3.26,2.81s1.27,2.34,2.62,2.75,2.27.52,2.27,1.59c0,.9-.7,1.31-1.66,1.31a5.62,5.62,0,0,1-3-1v1.78a6.63,6.63,0,0,0,3,.73c2,0,3.37-1.1,3.37-2.91s-1.29-2.41-2.72-2.85Z"/><polygon class="cls-2" points="133.16 61.69 136.33 61.69 136.33 69.85 138.02 69.85 138.02 61.69 141.22 61.69 141.22 60.18 133.16 60.18 133.16 61.69 133.16 61.69"/><polygon class="cls-2" points="144.93 60.18 143.23 60.18 143.23 69.85 149.32 69.85 149.32 68.34 144.93 68.34 144.93 60.18 144.93 60.18"/><polygon class="cls-2" points="152.81 65.54 156.35 65.54 156.35 64.09 152.81 64.09 152.81 61.69 156.88 61.69 156.88 60.18 151.11 60.18 151.11 69.85 157.02 69.85 157.02 68.34 152.81 68.34 152.81 65.54 152.81 65.54"/><path class="cls-2" d="M35.15,49.19a7.47,7.47,0,0,1-1.26.13l-.15,0c0,.9-.12,4.88-.12,4.88l-.08,3.38c2,.53,4.49-.14,6.48.89V49.89a5.39,5.39,0,0,0-1.85-.75,10.27,10.27,0,0,0-3,0Z"/><path class="cls-2" d="M47.47,49.3h-.15a6.65,6.65,0,0,1-1.26-.13,10.25,10.25,0,0,0-3,0,5.65,5.65,0,0,0-1.85.74v8.57c2-1,4.46-.36,6.49-.89l-.09-3.38s-.1-4-.12-4.88Z"/><path class="cls-2" d="M45.31,59.48a7.93,7.93,0,0,0-4.08.89H40a7.93,7.93,0,0,0-4.08-.89c-1.15,0-3.28.2-5,.06l.41-10.43L32.65,48c1.39.38,2,0,3.59,0a7.55,7.55,0,0,1,4.37,1.06h0A7.53,7.53,0,0,1,45,48c1.55,0,2.2.4,3.59,0l1.34,1.08.41,10.43c-1.74.14-3.86-.06-5-.06Zm14.07-9.32c-1-.67-2-1.3-3-1.86l0,0,0,0,1.3-2.63c-.82-.44-1.65-.86-2.46-1.22l-.63-.28-1,2.81h-.05a32.07,32.07,0,0,0-3.92-1.4h0v0l.76-2.86c-1.09-.31-2.2-.57-3.32-.78l-.44,3h-.05a32.44,32.44,0,0,0-4.28-.5h-.05v0l.16-3c-.58,0-1.16,0-1.73,0s-1.16,0-1.73,0l.16,3h0a32.37,32.37,0,0,0-4.29.49h0v-.05l-.44-2.94c-1.11.21-2.23.47-3.31.78l.77,2.91h-.05a33.25,33.25,0,0,0-3.92,1.39l0,0-1-2.82-.63.28c-.82.36-1.65.78-2.46,1.22l1.32,2.68,0,0a32.68,32.68,0,0,0-3,1.86h0c2.26,6.15,7.35,13.54,18.8,19.7C52,63.71,57.12,56.31,59.38,50.16Z"/><polygon class="cls-2" points="35.82 32.03 36.75 32.03 36.75 30 35.82 30 35.82 32.03 35.82 32.03"/><polygon class="cls-2" points="30.94 27.04 30.01 27.04 30.01 29.07 30.94 29.07 30.94 27.04 30.94 27.04"/><polygon class="cls-2" points="24.24 32.03 25.17 32.03 25.17 30 24.24 30 24.24 32.03 24.24 32.03"/><g class="cls-3"><polygon class="cls-2" points="51.06 27.04 50.13 27.04 50.13 29.07 51.06 29.07 51.06 27.04 51.06 27.04"/><path class="cls-2" d="M58.71,28.29h-4.6V26.16H55v.93h1v-.93h.85v.93h1v-.93h.87v2.13Zm-.46,6.79H54.57L55.06,34V29.12h2.7V34l.49,1.09Zm.08,2.82H54.49v-2h3.84v2ZM54,34l-.56,1.12v2.82H52V34.45c0-.92-1.34-1.42-1.4-1.44h0c-.06,0-1.4.52-1.4,1.44v3.46H47.76v-2.7L47.2,34V30.61h1v.93h1v-.93h.85v.93h1v-.93H52v.93h1v-.93h1V34ZM52,26.15V30H49.24v-3.8Zm-3.65-3h.87v.94h1v-.94H51v.94h1v-.94h.87v2.16H48.3V23.17Zm-1.2,5.12H42.5V26.16h.87v.93h1v-.93h.85v.93h1v-.93h.86v2.13Zm-.45,6.79H43L43.46,34V29.12h2.69V34l.5,1.09Zm.07,2.82H42.88v-2h3.84v2Zm-8.13-9.61H34V26.16h.87v.93h1v-.93h.85v.93h1v-.93h.87v2.13Zm-.46,6.79H34.45L34.94,34V29.12h2.7V34l.49,1.09Zm.08,2.82H34.37v-2h3.84v2ZM33.9,34l-.56,1.12v2.82H31.9V34.45c0-.92-1.34-1.42-1.4-1.44h0c-.06,0-1.4.52-1.4,1.44v3.46H27.64v-2.7L27.08,34V30.61h1v.93h1v-.93H30v.93h1v-.93h.84v.93h1v-.93h1V34ZM27,28.29H22.39V26.16h.86v.93h1v-.93h.85v.93h1v-.93H27v2.13Zm-.45,6.79H22.85L23.34,34V29.12H26V34l.5,1.09Zm.07,2.82H22.76v-2H26.6v2Zm5.23-11.75V30H29.12v-3.8Zm-3.65-3h.87v.94h1v-.94h.85v.94h1v-.94h.87v2.16h-4.6V23.17ZM20,20.72v19a29.84,29.84,0,0,0,1.51,9.67c.71-.48,1.45-.94,2.18-1.37l-1.37-2.78.8-.45a34.73,34.73,0,0,1,3.19-1.55h0l.85-.35v0l1.05,2.9c.78-.31,1.57-.6,2.36-.84l-.8-3,.88-.26c1.11-.32,2.26-.58,3.41-.79h0l.89-.16v0l.46,3.07c.87-.14,1.76-.24,2.65-.31l-.17-3.14.9-.06h0c.6,0,1.2,0,1.78,0h0c.59,0,1.19,0,1.79,0l.9.06v0l-.17,3.1c.89.07,1.79.17,2.66.31l.46-3.11.9.16c1.15.21,2.29.48,3.41.79h0l.87.26-.8,3c.8.24,1.59.53,2.36.84L54,42.86l.84.35c1.08.47,2.15,1,3.19,1.55h0l.8.45L57.49,48c.72.42,1.47.9,2.17,1.38a29.92,29.92,0,0,0,1.51-9.68v-19Z"/></g><polygon class="cls-2" points="55.94 32.03 56.87 32.03 56.87 30 55.94 30 55.94 32.03 55.94 32.03"/><polygon class="cls-2" points="44.35 32.03 45.29 32.03 45.29 30 44.35 30 44.35 32.03 44.35 32.03"/></svg>