<?xml version="1.0" encoding="utf-8"?>
<!-- Generator: Adobe Illustrator 23.0.6, SVG Export Plug-In . SVG Version: 6.00 Build 0)  -->
<svg version="1.1" id="Text" xmlns="http://www.w3.org/2000/svg" xmlns:xlink="http://www.w3.org/1999/xlink" x="0px" y="0px"
	 viewBox="0 0 336 280" style="enable-background:new 0 0 336 280;" xml:space="preserve">
<style type="text/css">
	.st0{fill:#FFFFFF;}
</style>
<title>336x280 Frame 2_state1 copy</title>
<g>
	<path class="st0" d="M21.5,191.3h2.4c0.9,0,1.7,0,2.4,0.4c0.7,0.4,1.2,1.1,1.2,2c0,0.9-0.5,1.6-1.1,2c-0.3,0.2-0.6,0.3-1,0.4
		l2.8,3.8h-1.4l-2.7-3.7h-1.5v3.7h-1.1V191.3z M24.1,195.3c0.8,0,1.3-0.1,1.7-0.4c0.3-0.2,0.5-0.6,0.5-1.1c0-0.6-0.3-1-0.7-1.2
		c-0.5-0.3-1-0.3-1.9-0.3h-1.1v3H24.1z"/>
	<path class="st0" d="M29.3,191.3h1.1v8.7h-1.1V191.3z"/>
	<path class="st0" d="M36.4,191.2c0.9,0,1.8,0.2,2.4,0.6v1.2c-0.6-0.5-1.5-0.8-2.5-0.8c-2,0-3.4,1.5-3.4,3.4c0,1.9,1.4,3.4,3.5,3.4
		c1,0,1.8-0.3,2.5-0.9v1.3c-0.7,0.4-1.6,0.7-2.6,0.7c-2.6,0-4.5-1.9-4.5-4.4C31.9,193.2,33.7,191.2,36.4,191.2z"/>
	<path class="st0" d="M40.3,198.2c0.8,0.6,1.9,0.9,2.6,0.9c1,0,1.8-0.5,1.8-1.4c0-1.1-1-1.3-2.2-1.6c-1.2-0.3-2.4-0.9-2.4-2.4
		c0-1.5,1.1-2.4,2.8-2.4c0.8,0,1.8,0.2,2.5,0.6v1.2c-0.8-0.6-1.8-0.8-2.5-0.8c-1,0-1.7,0.4-1.7,1.3c0,1.1,1,1.3,2.1,1.6
		c1.3,0.4,2.5,0.9,2.5,2.5c0,1.6-1.2,2.5-2.9,2.5c-0.8,0-1.9-0.2-2.6-0.7V198.2z"/>
	<path class="st0" d="M50.4,199.7c-0.4-0.3-0.6-0.7-0.6-1.3c0-0.7,0.3-1.1,0.8-1.4c0.4-0.3,1-0.4,1.7-0.4c0.5,0,0.9,0.1,1.3,0.2
		v-0.5c0-0.4-0.1-0.8-0.3-1c-0.2-0.2-0.6-0.3-1.1-0.3c-0.7,0-1.4,0.3-1.8,0.6v-1.1c0.5-0.3,1.1-0.5,2-0.5c0.7,0,1.3,0.2,1.8,0.5
		c0.3,0.3,0.6,0.8,0.6,1.5v2.5c0,0.4,0.1,0.6,0.5,0.6c0.1,0,0.3,0,0.3-0.1v0.9c-0.1,0.1-0.3,0.1-0.6,0.1c-0.5,0-0.9-0.2-1.1-0.6h0
		c-0.3,0.3-1,0.6-1.8,0.6C51.3,200.1,50.8,200,50.4,199.7z M53.4,198.7v-1.1c-0.3-0.1-0.8-0.2-1.2-0.2c-0.7,0-1.5,0.2-1.5,0.9
		c0,0.6,0.5,0.9,1.1,0.9C52.5,199.2,53.1,198.9,53.4,198.7z"/>
	<path class="st0" d="M61.1,199.7c-0.5,0.3-1.2,0.4-1.8,0.4c-1.9,0-3.2-1.3-3.2-3c0-1.8,1.4-3.1,3.3-3.1c0.6,0,1.2,0.2,1.6,0.4v1.1
		c-0.5-0.3-1.1-0.5-1.6-0.5c-1.3,0-2.1,0.9-2.1,2.1c0,1.2,0.9,2.1,2.2,2.1c0.7,0,1.3-0.2,1.7-0.6V199.7z"/>
	<path class="st0" d="M67.2,199.7c-0.5,0.3-1.2,0.4-1.8,0.4c-1.9,0-3.2-1.3-3.2-3c0-1.8,1.4-3.1,3.3-3.1c0.6,0,1.2,0.2,1.6,0.4v1.1
		c-0.5-0.3-1.1-0.5-1.6-0.5c-1.3,0-2.1,0.9-2.1,2.1c0,1.2,0.9,2.1,2.2,2.1c0.7,0,1.3-0.2,1.7-0.6V199.7z"/>
	<path class="st0" d="M68.7,194.1h1.1v0.9l0,0c0.4-0.6,1.1-0.9,1.8-0.9c0.1,0,0.3,0,0.4,0v1.1c-0.1,0-0.3,0-0.4,0
		c-0.8,0-1.4,0.4-1.7,1v3.8h-1.1V194.1z"/>
	<path class="st0" d="M73.7,197.4c0.2,1.2,1,1.8,2.2,1.8c0.8,0,1.5-0.3,2-0.7v1.2c-0.5,0.3-1.3,0.6-2.1,0.6c-1.8,0-3.2-1.2-3.2-3.1
		c0-1.9,1.4-3.1,2.9-3.1c1.4,0,2.7,1,2.7,2.9c0,0.2,0,0.4,0,0.5H73.7z M73.7,196.5h3.5c-0.1-1.2-1-1.6-1.7-1.6
		C74.7,194.9,73.9,195.4,73.7,196.5z"/>
	<path class="st0" d="M82.5,194c0.6,0,1,0.1,1.4,0.3l0,0v-3.4H85v9.2h-1.1v-0.4l0,0c-0.4,0.3-0.9,0.5-1.7,0.5c-1.6,0-2.9-1.2-2.9-3
		C79.4,195.3,80.6,194,82.5,194z M82.4,199.2c0.6,0,1.1-0.2,1.5-0.5v-3.4c-0.4-0.2-0.9-0.4-1.5-0.4c-1.2,0-2,0.9-2,2.2
		C80.5,198.3,81.2,199.2,82.4,199.2z"/>
	<path class="st0" d="M87.4,191.3c0.4,0,0.8,0.3,0.8,0.8s-0.3,0.8-0.8,0.8s-0.8-0.3-0.8-0.8S87,191.3,87.4,191.3z M86.9,194.1H88
		v5.9h-1.1V194.1z"/>
	<path class="st0" d="M90.3,197.9v-2.9h-1.1v-1h1.1v-1.6l1.1-0.2v1.8h1.8v1h-1.8v2.7c0,0.7,0.1,1.4,0.9,1.4c0.3,0,0.7-0.1,0.9-0.3v1
		c-0.2,0.1-0.7,0.2-1.1,0.2c-0.4,0-1-0.1-1.3-0.6C90.5,199.3,90.3,198.8,90.3,197.9z"/>
	<path class="st0" d="M95.1,197.4c0.2,1.2,1,1.8,2.2,1.8c0.8,0,1.5-0.3,2-0.7v1.2c-0.5,0.3-1.3,0.6-2.1,0.6c-1.8,0-3.2-1.2-3.2-3.1
		c0-1.9,1.4-3.1,2.9-3.1c1.4,0,2.7,1,2.7,2.9c0,0.2,0,0.4,0,0.5H95.1z M95.1,196.5h3.5c-0.1-1.2-1-1.6-1.7-1.6
		C96.1,194.9,95.3,195.4,95.1,196.5z"/>
	<path class="st0" d="M103.9,194c0.6,0,1,0.1,1.4,0.3l0,0v-3.4h1.1v9.2h-1.1v-0.4l0,0c-0.4,0.3-0.9,0.5-1.7,0.5
		c-1.6,0-2.9-1.2-2.9-3C100.8,195.3,102.1,194,103.9,194z M103.8,199.2c0.6,0,1.1-0.2,1.5-0.5v-3.4c-0.4-0.2-0.9-0.4-1.5-0.4
		c-1.2,0-2,0.9-2,2.2C101.9,198.3,102.6,199.2,103.8,199.2z"/>
</g>
</svg>
